<svg width="1200" height="675" viewBox="0 0 1200 675" fill="none" xmlns="http://www.w3.org/2000/svg">
  <rect width="1200" height="675" rx="32" fill="#0B0B0F"/>
  <rect x="80" y="96" width="1040" height="96" rx="18" fill="#111118" stroke="#1F1F28" stroke-width="2"/>
  <rect x="80" y="224" width="520" height="355" rx="18" fill="#0F0F15" stroke="#1F1F28" stroke-width="2"/>
  <rect x="640" y="224" width="480" height="355" rx="18" fill="#0F0F15" stroke="#1F1F28" stroke-width="2"/>
  <rect x="640" y="256" width="220" height="22" rx="11" fill="#1E1E26"/>
  <rect x="640" y="300" width="320" height="14" rx="7" fill="#1A1A22"/>
  <rect x="640" y="334" width="360" height="14" rx="7" fill="#14141C"/>
  <rect x="640" y="368" width="260" height="14" rx="7" fill="#14141C"/>
  <rect x="112" y="256" width="156" height="14" rx="7" fill="#1C1C24"/>
  <rect x="112" y="288" width="96" height="96" rx="16" fill="#1B1B23"/>
  <rect x="224" y="288" width="96" height="96" rx="16" fill="#111118"/>
  <rect x="336" y="288" width="96" height="96" rx="16" fill="#1B1B23"/>
  <rect x="448" y="288" width="96" height="96" rx="16" fill="#111118"/>
  <rect x="112" y="404" width="432" height="16" rx="8" fill="#1A1A22"/>
  <rect x="112" y="436" width="320" height="14" rx="7" fill="#14141C"/>
  <rect x="112" y="470" width="260" height="14" rx="7" fill="#14141C"/>
  <circle cx="148" cy="144" r="10" fill="#1C1C24"/>
  <circle cx="180" cy="144" r="10" fill="#1C1C24"/>
  <circle cx="212" cy="144" r="10" fill="#1C1C24"/>
  <rect x="260" y="132" width="120" height="24" rx="12" fill="#1E1E26"/>
  <rect x="396" y="132" width="180" height="24" rx="12" fill="#16161E"/>
  <rect x="592" y="132" width="180" height="24" rx="12" fill="#16161E"/>
  <rect x="788" y="132" width="120" height="24" rx="12" fill="#1E1E26"/>
  <rect x="928" y="132" width="120" height="24" rx="12" fill="#1E1E26"/>
</svg>
